PathFileType	4	(X/Y/Z)	/Users/itak/Documents/Research/Walk-IL/dataset/trc/00242_00009.trc
DataRate	CameraRate	NumFrames	NumMarkers	Units	OrigDataRate	OrigDataStartFrame	OrigNumFrames
100.000000	100.000000	4	53	mm	100.000000	0	832
Frame#	Time	RPSI			LPSI			L3			STRN			T10			C7			CLAV			RBAK			LBAK			LSHO			LUPA			LAEL			LAOL			LWTS			LWPS			LFRA			LIFD			LHPS			LHTS			RSHO			RUPA			RAEL			RAOL			RWTS			RWPS			RFRA			RIFD			RHTS			RHPS			RBHD			LFHD			RFHD			LBHD			LHIP			RHIP			RASI			LASI			LKNE			LTHI			LANK			LTIP			LTOE			LMT1			LMT5			LHEE			RKNE			RTHI			RANK			RTIP			RTOE			RMT1			RMT5			RHEE			
		X1	Y1	Z1	X2	Y2	Z2	X3	Y3	Z3	X4	Y4	Z4	X5	Y5	Z5	X6	Y6	Z6	X7	Y7	Z7	X8	Y8	Z8	X9	Y9	Z9	X10	Y10	Z10	X11	Y11	Z11	X12	Y12	Z12	X13	Y13	Z13	X14	Y14	Z14	X15	Y15	Z15	X16	Y16	Z16	X17	Y17	Z17	X18	Y18	Z18	X19	Y19	Z19	X20	Y20	Z20	X21	Y21	Z21	X22	Y22	Z22	X23	Y23	Z23	X24	Y24	Z24	X25	Y25	Z25	X26	Y26	Z26	X27	Y27	Z27	X28	Y28	Z28	X29	Y29	Z29	X30	Y30	Z30	X31	Y31	Z31	X32	Y32	Z32	X33	Y33	Z33	X34	Y34	Z34	X35	Y35	Z35	X36	Y36	Z36	X37	Y37	Z37	X38	Y38	Z38	X39	Y39	Z39	X40	Y40	Z40	X41	Y41	Z41	X42	Y42	Z42	X43	Y43	Z43	X44	Y44	Z44	X45	Y45	Z45	X46	Y46	Z46	X47	Y47	Z47	X48	Y48	Z48	X49	Y49	Z49	X50	Y50	Z50	X51	Y51	Z51	X52	Y52	Z52	X53	Y53	Z53	

1	0	300.8738098144531	1050.158081054688	927.8074340820312	293.7687377929688	1054.06787109375	1048.122192382812	302.4247436523438	1134.968383789062	1004.988891601562	53.35445785522461	1313.94482421875	995.0108642578125	304.8565368652344	1261.4541015625	1001.780822753906	238.7640075683594	1521.55029296875	1006.847229003906	74.89234924316406	1431.688720703125	994.9451904296875	323.7302856445312	1385.822998046875	935.2662353515625	253.5370788574219	1483.119018554688	1116.972290039062	161.4002380371094	1480.403198242188	1167.97314453125	193.3423156738281	1363.094970703125	1247.454467773438	188.7374725341797	1152.84814453125	1276.46826171875	262.5731201171875	1139.50732421875	1230.803466796875	109.4137115478516	914.6578369140625	1215.697998046875	133.3769073486328	898.8777465820312	1296.35791015625	170.7061309814453	1044.271728515625	1290.088989257812	113.1744003295898	723.0946044921875	1223.756469726562	119.4702224731445	809.82080078125	1290.858154296875	77.91980743408203	812.8726196289062	1235.7275390625	190.85009765625	1480.791381835938	833.7903442382812	216.1039428710938	1416.933715820312	767.3057861328125	247.6247711181641	1137.201293945312	726.223388671875	270.3189086914062	1127.7783203125	818.4644775390625	98.81276702880859	928.0641479492188	742.5652465820312	161.4138488769531	912.0691528320312	687.5591430664062	221.9269256591797	1069.868530273438	708.2965087890625	74.70159912109375	734.3760375976562	737.6630249023438	57.4716682434082	809.4401245117188	716.8126831054688	118.5232620239258	807.7120971679688	676.597412109375	207.2465667724609	1659.220825195312	1037.076538085938	16.47833442687988	1736.729736328125	940.180419921875	98.10257720947266	1737.340576171875	881.126220703125	74.27593994140625	1671.778198242188	1080.767944335938	186.8804321289062	989.1331787109375	1183.367431640625	208.1949768066406	1011.483764648438	816.149658203125	109.8029861450195	1052.343505859375	847.4351196289062	88.27524566650391	1030.051635742188	1128.090454101562	159.2095184326172	503.7033996582031	1122.40087890625	158.7924957275391	646.6209716796875	1158.39794921875	226.7399291992188	34.61178970336914	1085.083862304688	201.6595611572266	280.1786804199219	1116.939208984375	9.426793098449707	43.99121475219727	1036.996459960938	74.92938995361328	39.79331970214844	991.8516235351562	99.70000457763672	35.01261520385742	1107.810424804688	284.8301696777344	42.81375122070312	1029.834106445312	132.9388885498047	520.900146484375	828.5888061523438	141.6971893310547	790.1677856445312	796.2953491210938	239.7881469726562	43.31204223632812	833.3845825195312	130.5669708251953	400.6277465820312	840.7581787109375	28.16934585571289	44.36720657348633	868.46923828125	83.45051574707031	38.57416152954102	913.2645874023438	130.4070281982422	41.55044555664062	804.85546875	300.8781127929688	40.7435188293457	891.463134765625	
2	0.01	301.3746032714844	1050.217529296875	928.20361328125	294.0559997558594	1054.08935546875	1048.488159179688	302.7000427246094	1135.23388671875	1005.493103027344	53.354736328125	1313.8564453125	995.203369140625	305.0984802246094	1261.713623046875	1002.423828125	238.5472869873047	1521.691284179688	1007.551147460938	74.82991027832031	1431.618041992188	995.2955322265625	323.7439270019531	1386.15869140625	936.0470581054688	253.1806640625	1483.172607421875	1117.679565429688	160.8623504638672	1480.355102539062	1168.423217773438	192.7023773193359	1363.031982421875	1248.029052734375	188.1330413818359	1152.84619140625	1277.138427734375	262.0489196777344	1139.485229492188	1231.652954101562	108.9442977905273	914.6133422851562	1216.404663085938	132.8704223632812	898.9539184570312	1297.169799804688	170.1696472167969	1044.296142578125	1290.844116210938	113.4876022338867	722.5239868164062	1224.15283203125	118.8666381835938	809.8257446289062	1291.627563476562	77.64757537841797	812.7578735351562	1236.51904296875	191.0018768310547	1480.996948242188	834.3314208984375	216.4610900878906	1417.171264648438	767.9113159179688	248.4517517089844	1137.412353515625	727.098876953125	270.6637878417969	1128.032836914062	819.4257202148438	99.49381256103516	928.3402709960938	742.7320556640625	162.3836822509766	912.3057250976562	688.052490234375	222.8113555908203	1070.050903320312	709.0933837890625	75.17008209228516	734.6902465820312	737.5969848632812	58.19998550415039	809.7536010742188	716.7486572265625	119.4650421142578	807.9675903320312	676.879150390625	206.8243560791016	1659.179931640625	1037.93017578125	16.30405044555664	1736.718017578125	940.5845947265625	98.02278900146484	1737.40625	881.7543334960938	73.68819427490234	1671.685668945312	1081.253662109375	186.8240661621094	989.0762939453125	1183.616333007812	208.8438568115234	1011.645263671875	816.4262084960938	110.3320236206055	1052.441284179688	847.6387939453125	88.77419281005859	1029.903564453125	1128.180908203125	159.4315643310547	503.6833801269531	1122.582885742188	158.9326171875	646.594970703125	1158.477905273438	226.7318725585938	34.61374282836914	1085.095581054688	201.7294158935547	280.1613464355469	1117.019653320312	9.422080039978027	43.98411560058594	1036.998291015625	74.92784118652344	39.78915786743164	991.8496704101562	99.68949127197266	35.00730895996094	1107.833984375	284.8215026855469	42.80302047729492	1029.848754882812	131.6193237304688	521.2068481445312	828.86865234375	141.5953979492188	790.4315185546875	796.4984130859375	239.7733764648438	43.61334609985352	834.1138916015625	129.3831024169922	400.8248901367188	840.9183349609375	28.30069732666016	45.08195114135742	868.2695922851562	83.24604797363281	38.93000793457031	913.271240234375	130.6488037109375	41.89837265014648	805.261962890625	300.6515502929688	41.09900283813477	892.519287109375	
3	0.02	301.9546203613281	1050.300903320312	928.6687622070312	294.4263305664062	1054.121704101562	1048.92236328125	303.0367736816406	1135.552124023438	1006.100891113281	53.37166213989258	1313.750366210938	995.4345092773438	305.3804016113281	1262.0263671875	1003.212341308594	238.2852783203125	1521.867065429688	1008.419616699219	74.74273681640625	1431.541381835938	995.7069702148438	323.7823181152344	1386.570068359375	937.007568359375	252.7350006103516	1483.2373046875	1118.5556640625	160.2055206298828	1480.291015625	1168.981567382812	191.9008941650391	1362.95703125	1248.732666015625	187.3577117919922	1152.844970703125	1277.965698242188	261.37451171875	1139.458984375	1232.702270507812	108.3575439453125	914.5631713867188	1217.296020507812	132.1761169433594	899.036865234375	1298.180053710938	169.4566345214844	1044.32958984375	1291.773559570312	113.5454559326172	721.9940795898438	1224.8330078125	118.0726165771484	809.8515625	1292.61962890625	77.19359588623047	812.6446533203125	1237.515502929688	191.1970062255859	1481.262084960938	834.9998168945312	216.9135437011719	1417.4794921875	768.6511840820312	249.4627685546875	1137.696655273438	728.1454467773438	271.1141662597656	1128.363647460938	820.5770263671875	100.3684005737305	928.680419921875	742.9422607421875	163.5916442871094	912.6095581054688	688.6455078125	223.9045104980469	1070.300048828125	710.0435791015625	75.83824157714844	735.0629272460938	737.5511474609375	59.14928817749023	810.1275634765625	716.6948852539062	120.6502075195312	808.2911376953125	677.2183227539062	206.2904663085938	1659.147705078125	1038.978149414062	16.07919883728027	1736.698852539062	941.0826416015625	97.92027282714844	1737.490478515625	882.5289916992188	72.96482086181641	1671.556884765625	1081.846313476562	186.7879028320312	989.0068359375	1183.90380859375	209.6328125	1011.85888671875	816.7459106445312	110.9718017578125	1052.585571289062	847.87744140625	89.42726898193359	1029.684448242188	1128.270874023438	159.7155303955078	503.6515502929688	1122.771484375	159.1010131835938	646.5629272460938	1158.564331054688	226.7248229980469	34.61687088012695	1085.109741210938	201.8131408691406	280.1418151855469	1117.097900390625	9.417362213134766	43.97740936279297	1037.000366210938	74.92466735839844	39.78328704833984	991.8486328125	99.67879486083984	35.00149536132812	1107.859741210938	284.810302734375	42.78980255126953	1029.867065429688	129.9939270019531	521.5905151367188	829.2157592773438	141.4402618408203	790.764892578125	796.7572021484375	239.7997741699219	43.99761581420898	835.0933837890625	127.9626846313477	401.0679931640625	841.1471557617188	28.4665355682373	46.08423614501953	867.9907836914062	82.99769592285156	39.45884323120117	913.29345703125	130.9915008544922	42.35878372192383	805.7615356445312	300.3568420410156	41.54329299926758	893.9224243164062	
4	0.03	302.5682678222656	1050.407958984375	929.1674194335938	294.8614807128906	1054.166748046875	1049.393798828125	303.4119873046875	1135.90234375	1006.773071289062	53.4100227355957	1313.635864257812	995.6884155273438	305.6769104003906	1262.372924804688	1004.104614257812	237.9961395263672	1522.069091796875	1009.408752441406	74.63481903076172	1431.468139648438	996.1478271484375	323.8540954589844	1387.033935546875	938.096923828125	252.2214202880859	1483.309448242188	1119.55712890625	159.4678497314453	1480.212036132812	1169.6220703125	190.9740142822266	1362.8759765625	1249.52734375	186.4363098144531	1152.844970703125	1278.908447265625	260.569580078125	1139.42822265625	1233.898315429688	107.6692657470703	914.5120849609375	1218.334350585938	131.2976837158203	899.1200561523438	1299.342407226562	168.5772247314453	1044.372192382812	1292.828979492188	113.2195129394531	721.5983276367188	1225.83251953125	117.104606628418	809.9033813476562	1293.797973632812	76.53765869140625	812.5525512695312	1238.669311523438	191.4326782226562	1481.57861328125	835.7626953125	217.4453582763672	1417.849975585938	769.4853515625	250.6053314208984	1138.051635742188	729.291015625	271.6657104492188	1128.761840820312	821.8378295898438	101.4062652587891	929.0680541992188	743.1845703125	164.9806518554688	912.9713134765625	689.2988891601562	225.1538391113281	1070.616455078125	711.079345703125	76.71221160888672	735.4688720703125	737.543212890625	60.2989501953125	810.5457153320312	716.6620483398438	122.0299453735352	808.670166015625	677.5944213867188	205.6705322265625	1659.134887695312	1040.1640625	15.81076335906982	1736.670776367188	941.6480102539062	97.79839324951172	1737.589721679688	883.4094848632812	72.14563751220703	1671.392333984375	1082.51513671875	186.7916564941406	988.9287109375	1184.206909179688	210.510498046875	1012.12109375	817.0808715820312	111.6808242797852	1052.7802734375	848.13232421875	90.20759582519531	1029.384033203125	1128.354736328125	160.0516815185547	503.6096496582031	1122.943237304688	159.2881927490234	646.527099609375	1158.647216796875	226.7196807861328	34.62091827392578	1085.125244140625	201.9063720703125	280.1210327148438	1117.161499023438	9.412773132324219	43.97154235839844	1037.002075195312	74.91966247558594	39.77581024169922	991.8491821289062	99.66897583007812	34.99629592895508	1107.884643554688	284.7972106933594	42.77485656738281	1029.887817382812	128.1528930664062	522.0345458984375	829.6119384765625	141.2279052734375	791.155029296875	797.0626831054688	239.8730010986328	44.44714736938477	836.3148803710938	126.3980560302734	401.3468627929688	841.4420776367188	28.65804290771484	47.37331008911133	867.6476440429688	82.71051025390625	40.18263626098633	913.3519287109375	131.4330902099609	42.9169921875	806.337890625	300.0051879882812	42.05205535888672	895.6511840820312	
